<mxfile host="app.diagrams.net" modified="2023-10-06T17:16:17.102Z" agent="Mozilla/5.0 (Windows NT 10.0; Win64; x64) AppleWebKit/537.36 (KHTML, like Gecko) Chrome/115.0.0.0 Safari/537.36" etag="BH3KEIt6-OL4w0pBR0It" version="22.0.3" type="device">
  <diagram name="PÃ¡gina-1" id="YYPLR7em1B62Rwu6h7cD">
    <mxGraphModel dx="2514" dy="2089" grid="1" gridSize="10" guides="1" tooltips="1" connect="1" arrows="1" fold="1" page="1" pageScale="1" pageWidth="827" pageHeight="1169" math="0" shadow="0">
      <root>
        <mxCell id="0" />
        <mxCell id="1" parent="0" />
        <mxCell id="UHW693a0Wnq4BT_KecG--1" value="Cliente" style="swimlane;fontStyle=0;childLayout=stackLayout;horizontal=1;startSize=30;horizontalStack=0;resizeParent=1;resizeParentMax=0;resizeLast=0;collapsible=1;marginBottom=0;whiteSpace=wrap;html=1;fillColor=#ffcd28;strokeColor=#d79b00;gradientColor=#ffa500;" parent="1" vertex="1">
          <mxGeometry x="-80" y="-50" width="230" height="450" as="geometry" />
        </mxCell>
        <mxCell id="UHW693a0Wnq4BT_KecG--2" value="&lt;u&gt;cliDoc VARCHAR (10)&lt;/u&gt;&amp;nbsp;NOT NULL&amp;nbsp; &amp;nbsp;&amp;nbsp;&lt;b&gt;PK&lt;/b&gt;" style="text;strokeColor=none;fillColor=none;align=left;verticalAlign=middle;spacingLeft=4;spacingRight=4;overflow=hidden;points=[[0,0.5],[1,0.5]];portConstraint=eastwest;rotatable=0;whiteSpace=wrap;html=1;" parent="UHW693a0Wnq4BT_KecG--1" vertex="1">
          <mxGeometry y="30" width="230" height="30" as="geometry" />
        </mxCell>
        <mxCell id="UHW693a0Wnq4BT_KecG--44" value="&lt;u&gt;idCiu INT NOT NULL&lt;/u&gt;&amp;nbsp; &amp;nbsp; &amp;nbsp; &amp;nbsp; &amp;nbsp; &amp;nbsp; &amp;nbsp; &amp;nbsp; &amp;nbsp; &amp;nbsp; &amp;nbsp; &amp;nbsp;&amp;nbsp;&lt;b&gt;FK&lt;/b&gt;" style="text;strokeColor=none;fillColor=none;align=left;verticalAlign=middle;spacingLeft=4;spacingRight=4;overflow=hidden;points=[[0,0.5],[1,0.5]];portConstraint=eastwest;rotatable=0;whiteSpace=wrap;html=1;" parent="UHW693a0Wnq4BT_KecG--1" vertex="1">
          <mxGeometry y="60" width="230" height="30" as="geometry" />
        </mxCell>
        <mxCell id="bvKT32oD0-qzsxiZBk1q-25" value="&lt;u&gt;idRol INT NOT NULL&amp;nbsp;&lt;/u&gt;DEFAULT 1&amp;nbsp; &amp;nbsp;&amp;nbsp;&lt;b&gt;FK&lt;/b&gt;" style="text;strokeColor=none;fillColor=none;align=left;verticalAlign=middle;spacingLeft=4;spacingRight=4;overflow=hidden;points=[[0,0.5],[1,0.5]];portConstraint=eastwest;rotatable=0;whiteSpace=wrap;html=1;" parent="UHW693a0Wnq4BT_KecG--1" vertex="1">
          <mxGeometry y="90" width="230" height="30" as="geometry" />
        </mxCell>
        <mxCell id="UHW693a0Wnq4BT_KecG--5" value="cliNom VARCHAR (60) NOT NULL" style="text;strokeColor=none;fillColor=none;align=left;verticalAlign=middle;spacingLeft=4;spacingRight=4;overflow=hidden;points=[[0,0.5],[1,0.5]];portConstraint=eastwest;rotatable=0;whiteSpace=wrap;html=1;" parent="UHW693a0Wnq4BT_KecG--1" vertex="1">
          <mxGeometry y="120" width="230" height="30" as="geometry" />
        </mxCell>
        <mxCell id="UHW693a0Wnq4BT_KecG--4" value="cliDir VARCHAR (70) NOT NULL" style="text;strokeColor=none;fillColor=none;align=left;verticalAlign=middle;spacingLeft=4;spacingRight=4;overflow=hidden;points=[[0,0.5],[1,0.5]];portConstraint=eastwest;rotatable=0;whiteSpace=wrap;html=1;" parent="UHW693a0Wnq4BT_KecG--1" vertex="1">
          <mxGeometry y="150" width="230" height="30" as="geometry" />
        </mxCell>
        <mxCell id="UHW693a0Wnq4BT_KecG--6" value="cliTel Varchar (10) NOT NULL" style="text;strokeColor=none;fillColor=none;align=left;verticalAlign=middle;spacingLeft=4;spacingRight=4;overflow=hidden;points=[[0,0.5],[1,0.5]];portConstraint=eastwest;rotatable=0;whiteSpace=wrap;html=1;" parent="UHW693a0Wnq4BT_KecG--1" vertex="1">
          <mxGeometry y="180" width="230" height="30" as="geometry" />
        </mxCell>
        <mxCell id="UHW693a0Wnq4BT_KecG--7" value="cliEma VARCHAR (50) NOT NULL" style="text;strokeColor=none;fillColor=none;align=left;verticalAlign=middle;spacingLeft=4;spacingRight=4;overflow=hidden;points=[[0,0.5],[1,0.5]];portConstraint=eastwest;rotatable=0;whiteSpace=wrap;html=1;" parent="UHW693a0Wnq4BT_KecG--1" vertex="1">
          <mxGeometry y="210" width="230" height="30" as="geometry" />
        </mxCell>
        <mxCell id="5itmOo7OciiEflq-pPPm-1" value="cliPun INT NOT NULL DEFAULT 0" style="text;strokeColor=none;fillColor=none;align=left;verticalAlign=middle;spacingLeft=4;spacingRight=4;overflow=hidden;points=[[0,0.5],[1,0.5]];portConstraint=eastwest;rotatable=0;whiteSpace=wrap;html=1;" parent="UHW693a0Wnq4BT_KecG--1" vertex="1">
          <mxGeometry y="240" width="230" height="30" as="geometry" />
        </mxCell>
        <mxCell id="yLPHmwctXrpFt8gfFYM9-3" value="cliCon VARCHAR (20) NOT NULL" style="text;strokeColor=none;fillColor=none;align=left;verticalAlign=middle;spacingLeft=4;spacingRight=4;overflow=hidden;points=[[0,0.5],[1,0.5]];portConstraint=eastwest;rotatable=0;whiteSpace=wrap;html=1;" parent="UHW693a0Wnq4BT_KecG--1" vertex="1">
          <mxGeometry y="270" width="230" height="30" as="geometry" />
        </mxCell>
        <mxCell id="Hx_mXP-tW_U6W2S-rnSu-2" value="cliAct BOOLEAN NOT NULL DEFAULT TRUE" style="text;strokeColor=none;fillColor=none;align=left;verticalAlign=middle;spacingLeft=4;spacingRight=4;overflow=hidden;points=[[0,0.5],[1,0.5]];portConstraint=eastwest;rotatable=0;whiteSpace=wrap;html=1;" parent="UHW693a0Wnq4BT_KecG--1" vertex="1">
          <mxGeometry y="300" width="230" height="30" as="geometry" />
        </mxCell>
        <mxCell id="Hx_mXP-tW_U6W2S-rnSu-3" value="cliDirDos VARCHAR" style="text;strokeColor=none;fillColor=none;align=left;verticalAlign=middle;spacingLeft=4;spacingRight=4;overflow=hidden;points=[[0,0.5],[1,0.5]];portConstraint=eastwest;rotatable=0;whiteSpace=wrap;html=1;" parent="UHW693a0Wnq4BT_KecG--1" vertex="1">
          <mxGeometry y="330" width="230" height="30" as="geometry" />
        </mxCell>
        <mxCell id="Hx_mXP-tW_U6W2S-rnSu-4" value="cliDirTres VARCHAR" style="text;strokeColor=none;fillColor=none;align=left;verticalAlign=middle;spacingLeft=4;spacingRight=4;overflow=hidden;points=[[0,0.5],[1,0.5]];portConstraint=eastwest;rotatable=0;whiteSpace=wrap;html=1;" parent="UHW693a0Wnq4BT_KecG--1" vertex="1">
          <mxGeometry y="360" width="230" height="30" as="geometry" />
        </mxCell>
        <mxCell id="Hx_mXP-tW_U6W2S-rnSu-5" value="cliTelDos VARCHAR" style="text;strokeColor=none;fillColor=none;align=left;verticalAlign=middle;spacingLeft=4;spacingRight=4;overflow=hidden;points=[[0,0.5],[1,0.5]];portConstraint=eastwest;rotatable=0;whiteSpace=wrap;html=1;" parent="UHW693a0Wnq4BT_KecG--1" vertex="1">
          <mxGeometry y="390" width="230" height="30" as="geometry" />
        </mxCell>
        <mxCell id="Hx_mXP-tW_U6W2S-rnSu-6" value="cliTelTres VARCHAR" style="text;strokeColor=none;fillColor=none;align=left;verticalAlign=middle;spacingLeft=4;spacingRight=4;overflow=hidden;points=[[0,0.5],[1,0.5]];portConstraint=eastwest;rotatable=0;whiteSpace=wrap;html=1;" parent="UHW693a0Wnq4BT_KecG--1" vertex="1">
          <mxGeometry y="420" width="230" height="30" as="geometry" />
        </mxCell>
        <mxCell id="UHW693a0Wnq4BT_KecG--9" value="Venta" style="swimlane;fontStyle=0;childLayout=stackLayout;horizontal=1;startSize=30;horizontalStack=0;resizeParent=1;resizeParentMax=0;resizeLast=0;collapsible=1;marginBottom=0;whiteSpace=wrap;html=1;fillColor=#ffcd28;strokeColor=#d79b00;gradientColor=#ffa500;" parent="1" vertex="1">
          <mxGeometry x="230" y="-180" width="280" height="270" as="geometry" />
        </mxCell>
        <mxCell id="UHW693a0Wnq4BT_KecG--10" value="&lt;u&gt;venNum INT NOT NULL&lt;/u&gt;&amp;nbsp; &amp;nbsp; &amp;nbsp; &amp;nbsp; &amp;nbsp; &amp;nbsp; &amp;nbsp; &amp;nbsp; &amp;nbsp; &amp;nbsp; &amp;nbsp; &amp;nbsp; &amp;nbsp; &amp;nbsp; &amp;nbsp; &amp;nbsp; &amp;nbsp; &amp;nbsp;&lt;b&gt;PK&lt;/b&gt;" style="text;strokeColor=none;fillColor=none;align=left;verticalAlign=middle;spacingLeft=4;spacingRight=4;overflow=hidden;points=[[0,0.5],[1,0.5]];portConstraint=eastwest;rotatable=0;whiteSpace=wrap;html=1;" parent="UHW693a0Wnq4BT_KecG--9" vertex="1">
          <mxGeometry y="30" width="280" height="30" as="geometry" />
        </mxCell>
        <mxCell id="UHW693a0Wnq4BT_KecG--18" value="&lt;u&gt;docCli VARCHAR (10)&lt;/u&gt;&amp;nbsp;NOT NULL&amp;nbsp; &amp;nbsp; &amp;nbsp; &amp;nbsp; &amp;nbsp; &amp;nbsp; &amp;nbsp; &amp;nbsp; &amp;nbsp; &amp;nbsp; FK" style="text;strokeColor=none;fillColor=none;align=left;verticalAlign=middle;spacingLeft=4;spacingRight=4;overflow=hidden;points=[[0,0.5],[1,0.5]];portConstraint=eastwest;rotatable=0;whiteSpace=wrap;html=1;" parent="UHW693a0Wnq4BT_KecG--9" vertex="1">
          <mxGeometry y="60" width="280" height="30" as="geometry" />
        </mxCell>
        <mxCell id="Hx_mXP-tW_U6W2S-rnSu-8" value="&lt;u&gt;idTipPag INTEGER&lt;/u&gt;&amp;nbsp;NOT NULL&amp;nbsp; &amp;nbsp; &amp;nbsp; &amp;nbsp; &amp;nbsp; &amp;nbsp; &amp;nbsp; &amp;nbsp; &amp;nbsp; &amp;nbsp; &amp;nbsp; &amp;nbsp; &amp;nbsp;FK" style="text;strokeColor=none;fillColor=none;align=left;verticalAlign=middle;spacingLeft=4;spacingRight=4;overflow=hidden;points=[[0,0.5],[1,0.5]];portConstraint=eastwest;rotatable=0;whiteSpace=wrap;html=1;" parent="UHW693a0Wnq4BT_KecG--9" vertex="1">
          <mxGeometry y="90" width="280" height="30" as="geometry" />
        </mxCell>
        <mxCell id="TfvnZzf5zhwCHyDXL_qS-2" value="venDom BOOLEAN NOT NULL" style="text;strokeColor=none;fillColor=none;align=left;verticalAlign=middle;spacingLeft=4;spacingRight=4;overflow=hidden;points=[[0,0.5],[1,0.5]];portConstraint=eastwest;rotatable=0;whiteSpace=wrap;html=1;" parent="UHW693a0Wnq4BT_KecG--9" vertex="1">
          <mxGeometry y="120" width="280" height="30" as="geometry" />
        </mxCell>
        <mxCell id="UISFEy1dnGY1AOQaQV74-7" value="venRutFac VARCHAR (80) NOT NULL" style="text;strokeColor=none;fillColor=none;align=left;verticalAlign=middle;spacingLeft=4;spacingRight=4;overflow=hidden;points=[[0,0.5],[1,0.5]];portConstraint=eastwest;rotatable=0;whiteSpace=wrap;html=1;" parent="UHW693a0Wnq4BT_KecG--9" vertex="1">
          <mxGeometry y="150" width="280" height="30" as="geometry" />
        </mxCell>
        <mxCell id="pVnNqc0NSjyMipYpw8rr-1" value="venRec BOOLEAN NOT NULL DEFAULT FALSE" style="text;strokeColor=none;fillColor=none;align=left;verticalAlign=middle;spacingLeft=4;spacingRight=4;overflow=hidden;points=[[0,0.5],[1,0.5]];portConstraint=eastwest;rotatable=0;whiteSpace=wrap;html=1;" parent="UHW693a0Wnq4BT_KecG--9" vertex="1">
          <mxGeometry y="180" width="280" height="30" as="geometry" />
        </mxCell>
        <mxCell id="Hx_mXP-tW_U6W2S-rnSu-10" value="venPlaRec TIMESTAMP&amp;nbsp; NOT NULL DEFAULT NOW" style="text;strokeColor=none;fillColor=none;align=left;verticalAlign=middle;spacingLeft=4;spacingRight=4;overflow=hidden;points=[[0,0.5],[1,0.5]];portConstraint=eastwest;rotatable=0;whiteSpace=wrap;html=1;" parent="UHW693a0Wnq4BT_KecG--9" vertex="1">
          <mxGeometry y="210" width="280" height="30" as="geometry" />
        </mxCell>
        <mxCell id="Hx_mXP-tW_U6W2S-rnSu-11" value="venRutRec VARCHAR (80)" style="text;strokeColor=none;fillColor=none;align=left;verticalAlign=middle;spacingLeft=4;spacingRight=4;overflow=hidden;points=[[0,0.5],[1,0.5]];portConstraint=eastwest;rotatable=0;whiteSpace=wrap;html=1;" parent="UHW693a0Wnq4BT_KecG--9" vertex="1">
          <mxGeometry y="240" width="280" height="30" as="geometry" />
        </mxCell>
        <mxCell id="UHW693a0Wnq4BT_KecG--19" value="TipoPago" style="swimlane;fontStyle=0;childLayout=stackLayout;horizontal=1;startSize=30;horizontalStack=0;resizeParent=1;resizeParentMax=0;resizeLast=0;collapsible=1;marginBottom=0;whiteSpace=wrap;html=1;fillColor=#ffcd28;strokeColor=#d79b00;gradientColor=#ffa500;" parent="1" vertex="1">
          <mxGeometry x="270" y="270" width="220" height="90" as="geometry" />
        </mxCell>
        <mxCell id="UHW693a0Wnq4BT_KecG--20" value="&lt;u&gt;tipPagId INT NOT NULL&lt;/u&gt;&amp;nbsp; &amp;nbsp; &amp;nbsp; &amp;nbsp; &amp;nbsp; &amp;nbsp; &amp;nbsp; &amp;nbsp; &amp;nbsp;&amp;nbsp;&lt;b&gt;PK&lt;/b&gt;" style="text;strokeColor=none;fillColor=none;align=left;verticalAlign=middle;spacingLeft=4;spacingRight=4;overflow=hidden;points=[[0,0.5],[1,0.5]];portConstraint=eastwest;rotatable=0;whiteSpace=wrap;html=1;" parent="UHW693a0Wnq4BT_KecG--19" vertex="1">
          <mxGeometry y="30" width="220" height="30" as="geometry" />
        </mxCell>
        <mxCell id="UHW693a0Wnq4BT_KecG--21" value="tipPagNom VARCHAR (15) NOT NULL" style="text;strokeColor=none;fillColor=none;align=left;verticalAlign=middle;spacingLeft=4;spacingRight=4;overflow=hidden;points=[[0,0.5],[1,0.5]];portConstraint=eastwest;rotatable=0;whiteSpace=wrap;html=1;" parent="UHW693a0Wnq4BT_KecG--19" vertex="1">
          <mxGeometry y="60" width="220" height="30" as="geometry" />
        </mxCell>
        <mxCell id="UHW693a0Wnq4BT_KecG--24" value="" style="edgeStyle=orthogonalEdgeStyle;fontSize=12;html=1;endArrow=ERoneToMany;rounded=0;exitX=1;exitY=0.5;exitDx=0;exitDy=0;entryX=0;entryY=0.5;entryDx=0;entryDy=0;endSize=9;" parent="1" source="UHW693a0Wnq4BT_KecG--2" target="UHW693a0Wnq4BT_KecG--18" edge="1">
          <mxGeometry width="100" height="100" relative="1" as="geometry">
            <mxPoint x="590" y="230" as="sourcePoint" />
            <mxPoint x="690" y="130" as="targetPoint" />
          </mxGeometry>
        </mxCell>
        <mxCell id="UHW693a0Wnq4BT_KecG--27" value="Producto" style="swimlane;fontStyle=0;childLayout=stackLayout;horizontal=1;startSize=30;horizontalStack=0;resizeParent=1;resizeParentMax=0;resizeLast=0;collapsible=1;marginBottom=0;whiteSpace=wrap;html=1;fillColor=#ffcd28;strokeColor=#d79b00;gradientColor=#ffa500;" parent="1" vertex="1">
          <mxGeometry x="290" y="400" width="230" height="180" as="geometry" />
        </mxCell>
        <mxCell id="UHW693a0Wnq4BT_KecG--28" value="&lt;u&gt;proCod VARCHAR (6)&lt;/u&gt;&amp;nbsp;NOT NULL&amp;nbsp; &amp;nbsp; &amp;nbsp;&lt;b&gt;PK&lt;/b&gt;&amp;nbsp;" style="text;strokeColor=none;fillColor=none;align=left;verticalAlign=middle;spacingLeft=4;spacingRight=4;overflow=hidden;points=[[0,0.5],[1,0.5]];portConstraint=eastwest;rotatable=0;whiteSpace=wrap;html=1;" parent="UHW693a0Wnq4BT_KecG--27" vertex="1">
          <mxGeometry y="30" width="230" height="30" as="geometry" />
        </mxCell>
        <mxCell id="UHW693a0Wnq4BT_KecG--29" value="proNom VARCHAR (30) NOT NULL" style="text;strokeColor=none;fillColor=none;align=left;verticalAlign=middle;spacingLeft=4;spacingRight=4;overflow=hidden;points=[[0,0.5],[1,0.5]];portConstraint=eastwest;rotatable=0;whiteSpace=wrap;html=1;" parent="UHW693a0Wnq4BT_KecG--27" vertex="1">
          <mxGeometry y="60" width="230" height="30" as="geometry" />
        </mxCell>
        <mxCell id="UHW693a0Wnq4BT_KecG--30" value="proSto INT NOT NULL" style="text;strokeColor=none;fillColor=none;align=left;verticalAlign=middle;spacingLeft=4;spacingRight=4;overflow=hidden;points=[[0,0.5],[1,0.5]];portConstraint=eastwest;rotatable=0;whiteSpace=wrap;html=1;" parent="UHW693a0Wnq4BT_KecG--27" vertex="1">
          <mxGeometry y="90" width="230" height="30" as="geometry" />
        </mxCell>
        <mxCell id="UHW693a0Wnq4BT_KecG--31" value="proPre INT NOT NULL" style="text;strokeColor=none;fillColor=none;align=left;verticalAlign=middle;spacingLeft=4;spacingRight=4;overflow=hidden;points=[[0,0.5],[1,0.5]];portConstraint=eastwest;rotatable=0;whiteSpace=wrap;html=1;" parent="UHW693a0Wnq4BT_KecG--27" vertex="1">
          <mxGeometry y="120" width="230" height="30" as="geometry" />
        </mxCell>
        <mxCell id="UHW693a0Wnq4BT_KecG--32" value="proDis BOOLEAN DEFAULT TRUE NOT NULL" style="text;strokeColor=none;fillColor=none;align=left;verticalAlign=middle;spacingLeft=4;spacingRight=4;overflow=hidden;points=[[0,0.5],[1,0.5]];portConstraint=eastwest;rotatable=0;whiteSpace=wrap;html=1;" parent="UHW693a0Wnq4BT_KecG--27" vertex="1">
          <mxGeometry y="150" width="230" height="30" as="geometry" />
        </mxCell>
        <mxCell id="UHW693a0Wnq4BT_KecG--33" value="Proveedor" style="swimlane;fontStyle=0;childLayout=stackLayout;horizontal=1;startSize=30;horizontalStack=0;resizeParent=1;resizeParentMax=0;resizeLast=0;collapsible=1;marginBottom=0;whiteSpace=wrap;html=1;fillColor=#ffcd28;strokeColor=#d79b00;gradientColor=#ffa500;" parent="1" vertex="1">
          <mxGeometry x="-85" y="750" width="230" height="210" as="geometry" />
        </mxCell>
        <mxCell id="UHW693a0Wnq4BT_KecG--34" value="&lt;u&gt;proNit VARCHAR (15) NOT NULL&lt;/u&gt;&amp;nbsp; &amp;nbsp; &amp;nbsp; &lt;b&gt;PK&lt;/b&gt;" style="text;strokeColor=none;fillColor=none;align=left;verticalAlign=middle;spacingLeft=4;spacingRight=4;overflow=hidden;points=[[0,0.5],[1,0.5]];portConstraint=eastwest;rotatable=0;whiteSpace=wrap;html=1;" parent="UHW693a0Wnq4BT_KecG--33" vertex="1">
          <mxGeometry y="30" width="230" height="30" as="geometry" />
        </mxCell>
        <mxCell id="UHW693a0Wnq4BT_KecG--46" value="&lt;u&gt;idCiu&lt;/u&gt;&amp;nbsp; INT NOT NULL&amp;nbsp; &amp;nbsp; &amp;nbsp; &amp;nbsp; &amp;nbsp; &amp;nbsp; &amp;nbsp; &amp;nbsp; &amp;nbsp; &amp;nbsp; &amp;nbsp; &amp;nbsp; &amp;nbsp;F&lt;b&gt;K&lt;/b&gt;&amp;nbsp;" style="text;strokeColor=none;fillColor=none;align=left;verticalAlign=middle;spacingLeft=4;spacingRight=4;overflow=hidden;points=[[0,0.5],[1,0.5]];portConstraint=eastwest;rotatable=0;whiteSpace=wrap;html=1;" parent="UHW693a0Wnq4BT_KecG--33" vertex="1">
          <mxGeometry y="60" width="230" height="30" as="geometry" />
        </mxCell>
        <mxCell id="UHW693a0Wnq4BT_KecG--35" value="proNom VARCHAR (60) NOT NULL" style="text;strokeColor=none;fillColor=none;align=left;verticalAlign=middle;spacingLeft=4;spacingRight=4;overflow=hidden;points=[[0,0.5],[1,0.5]];portConstraint=eastwest;rotatable=0;whiteSpace=wrap;html=1;" parent="UHW693a0Wnq4BT_KecG--33" vertex="1">
          <mxGeometry y="90" width="230" height="30" as="geometry" />
        </mxCell>
        <mxCell id="UHW693a0Wnq4BT_KecG--36" value="proDir VARCHAR (70) NOT NULL" style="text;strokeColor=none;fillColor=none;align=left;verticalAlign=middle;spacingLeft=4;spacingRight=4;overflow=hidden;points=[[0,0.5],[1,0.5]];portConstraint=eastwest;rotatable=0;whiteSpace=wrap;html=1;" parent="UHW693a0Wnq4BT_KecG--33" vertex="1">
          <mxGeometry y="120" width="230" height="30" as="geometry" />
        </mxCell>
        <mxCell id="UHW693a0Wnq4BT_KecG--37" value="proTel VARCHAR (10) NOT NULL" style="text;strokeColor=none;fillColor=none;align=left;verticalAlign=middle;spacingLeft=4;spacingRight=4;overflow=hidden;points=[[0,0.5],[1,0.5]];portConstraint=eastwest;rotatable=0;whiteSpace=wrap;html=1;" parent="UHW693a0Wnq4BT_KecG--33" vertex="1">
          <mxGeometry y="150" width="230" height="30" as="geometry" />
        </mxCell>
        <mxCell id="TfvnZzf5zhwCHyDXL_qS-1" value="proEma VARCHAR (50) NOT NULL" style="text;strokeColor=none;fillColor=none;align=left;verticalAlign=middle;spacingLeft=4;spacingRight=4;overflow=hidden;points=[[0,0.5],[1,0.5]];portConstraint=eastwest;rotatable=0;whiteSpace=wrap;html=1;" parent="UHW693a0Wnq4BT_KecG--33" vertex="1">
          <mxGeometry y="180" width="230" height="30" as="geometry" />
        </mxCell>
        <mxCell id="UHW693a0Wnq4BT_KecG--38" value="Ciudad" style="swimlane;fontStyle=0;childLayout=stackLayout;horizontal=1;startSize=30;horizontalStack=0;resizeParent=1;resizeParentMax=0;resizeLast=0;collapsible=1;marginBottom=0;whiteSpace=wrap;html=1;fillColor=#ffcd28;strokeColor=#d79b00;gradientColor=#ffa500;" parent="1" vertex="1">
          <mxGeometry x="-80" y="570" width="210" height="150" as="geometry" />
        </mxCell>
        <mxCell id="UHW693a0Wnq4BT_KecG--39" value="&lt;u&gt;ciuId INT NOT NULL&lt;/u&gt;&amp;nbsp; &amp;nbsp; &amp;nbsp; &amp;nbsp; &amp;nbsp; &amp;nbsp; &amp;nbsp; &amp;nbsp; &amp;nbsp; &amp;nbsp;&amp;nbsp;&lt;b&gt;PK&lt;/b&gt;" style="text;strokeColor=none;fillColor=none;align=left;verticalAlign=middle;spacingLeft=4;spacingRight=4;overflow=hidden;points=[[0,0.5],[1,0.5]];portConstraint=eastwest;rotatable=0;whiteSpace=wrap;html=1;" parent="UHW693a0Wnq4BT_KecG--38" vertex="1">
          <mxGeometry y="30" width="210" height="30" as="geometry" />
        </mxCell>
        <mxCell id="t3XefT4DrZrVAsHFot_A-1" value="&lt;u&gt;IdDep INT NOT NULL&lt;/u&gt;&amp;nbsp; &amp;nbsp; &amp;nbsp; &amp;nbsp; &amp;nbsp; &amp;nbsp; &amp;nbsp; &amp;nbsp; &amp;nbsp; F&lt;b&gt;K&lt;/b&gt;" style="text;strokeColor=none;fillColor=none;align=left;verticalAlign=middle;spacingLeft=4;spacingRight=4;overflow=hidden;points=[[0,0.5],[1,0.5]];portConstraint=eastwest;rotatable=0;whiteSpace=wrap;html=1;" parent="UHW693a0Wnq4BT_KecG--38" vertex="1">
          <mxGeometry y="60" width="210" height="30" as="geometry" />
        </mxCell>
        <mxCell id="UHW693a0Wnq4BT_KecG--40" value="ciuNom VARCHAR (30) NOT NULL" style="text;strokeColor=none;fillColor=none;align=left;verticalAlign=middle;spacingLeft=4;spacingRight=4;overflow=hidden;points=[[0,0.5],[1,0.5]];portConstraint=eastwest;rotatable=0;whiteSpace=wrap;html=1;" parent="UHW693a0Wnq4BT_KecG--38" vertex="1">
          <mxGeometry y="90" width="210" height="30" as="geometry" />
        </mxCell>
        <mxCell id="61FQVvXKAMuJR3-rqrtT-23" value="preDom&amp;nbsp; INT DEFAULT NULL" style="text;strokeColor=none;fillColor=none;align=left;verticalAlign=middle;spacingLeft=4;spacingRight=4;overflow=hidden;points=[[0,0.5],[1,0.5]];portConstraint=eastwest;rotatable=0;whiteSpace=wrap;html=1;" parent="UHW693a0Wnq4BT_KecG--38" vertex="1">
          <mxGeometry y="120" width="210" height="30" as="geometry" />
        </mxCell>
        <mxCell id="UHW693a0Wnq4BT_KecG--42" value="" style="fontSize=12;html=1;endArrow=ERoneToMany;rounded=0;endSize=9;entryX=0;entryY=0.5;entryDx=0;entryDy=0;edgeStyle=orthogonalEdgeStyle;exitX=0;exitY=0.25;exitDx=0;exitDy=0;" parent="1" source="UHW693a0Wnq4BT_KecG--38" target="UHW693a0Wnq4BT_KecG--44" edge="1">
          <mxGeometry width="100" height="100" relative="1" as="geometry">
            <mxPoint x="-80" y="365" as="sourcePoint" />
            <mxPoint x="120" y="240" as="targetPoint" />
            <Array as="points">
              <mxPoint x="-130" y="608" />
              <mxPoint x="-130" y="25" />
            </Array>
          </mxGeometry>
        </mxCell>
        <mxCell id="UHW693a0Wnq4BT_KecG--48" value="" style="edgeStyle=orthogonalEdgeStyle;fontSize=12;html=1;endArrow=ERoneToMany;rounded=0;endSize=9;exitX=0.003;exitY=0.887;exitDx=0;exitDy=0;entryX=0;entryY=0.5;entryDx=0;entryDy=0;exitPerimeter=0;" parent="1" source="UHW693a0Wnq4BT_KecG--39" target="UHW693a0Wnq4BT_KecG--46" edge="1">
          <mxGeometry width="100" height="100" relative="1" as="geometry">
            <mxPoint x="150" y="410" as="sourcePoint" />
            <mxPoint x="250" y="355" as="targetPoint" />
            <Array as="points">
              <mxPoint x="-150" y="627" />
              <mxPoint x="-150" y="825" />
            </Array>
          </mxGeometry>
        </mxCell>
        <mxCell id="UHW693a0Wnq4BT_KecG--49" style="edgeStyle=none;rounded=0;orthogonalLoop=1;jettySize=auto;html=1;exitX=0.25;exitY=0;exitDx=0;exitDy=0;startSize=6;endSize=9;" parent="1" source="UHW693a0Wnq4BT_KecG--9" target="UHW693a0Wnq4BT_KecG--9" edge="1">
          <mxGeometry relative="1" as="geometry" />
        </mxCell>
        <mxCell id="oVwKqEpw7itJaS_T92dx-1" value="DetalleVenta" style="swimlane;fontStyle=0;childLayout=stackLayout;horizontal=1;startSize=30;horizontalStack=0;resizeParent=1;resizeParentMax=0;resizeLast=0;collapsible=1;marginBottom=0;whiteSpace=wrap;html=1;fillColor=#ffcd28;strokeColor=#d79b00;gradientColor=#ffa500;" parent="1" vertex="1">
          <mxGeometry x="625" y="285" width="230" height="210" as="geometry" />
        </mxCell>
        <mxCell id="oVwKqEpw7itJaS_T92dx-2" value="&lt;u&gt;numVen&lt;/u&gt;, &lt;u&gt;codPro&lt;/u&gt;&amp;nbsp; &amp;nbsp; &amp;nbsp; &amp;nbsp; &amp;nbsp; &amp;nbsp; &amp;nbsp; &amp;nbsp; &amp;nbsp; &amp;nbsp; &amp;nbsp; &amp;nbsp; &amp;nbsp; &amp;nbsp; &amp;nbsp; &amp;nbsp; &amp;nbsp;&amp;nbsp;&lt;b&gt;PK&lt;/b&gt;" style="text;strokeColor=none;fillColor=none;align=left;verticalAlign=middle;spacingLeft=4;spacingRight=4;overflow=hidden;points=[[0,0.5],[1,0.5]];portConstraint=eastwest;rotatable=0;whiteSpace=wrap;html=1;" parent="oVwKqEpw7itJaS_T92dx-1" vertex="1">
          <mxGeometry y="30" width="230" height="30" as="geometry" />
        </mxCell>
        <mxCell id="oVwKqEpw7itJaS_T92dx-3" value="&lt;u&gt;numVen INT&lt;/u&gt;&amp;nbsp;NOT NULL&amp;nbsp; &amp;nbsp; &amp;nbsp; &amp;nbsp; &amp;nbsp; &amp;nbsp; &amp;nbsp; &amp;nbsp; &amp;nbsp; &amp;nbsp; &amp;nbsp; FK" style="text;strokeColor=none;fillColor=none;align=left;verticalAlign=middle;spacingLeft=4;spacingRight=4;overflow=hidden;points=[[0,0.5],[1,0.5]];portConstraint=eastwest;rotatable=0;whiteSpace=wrap;html=1;" parent="oVwKqEpw7itJaS_T92dx-1" vertex="1">
          <mxGeometry y="60" width="230" height="30" as="geometry" />
        </mxCell>
        <mxCell id="oVwKqEpw7itJaS_T92dx-4" value="&lt;u&gt;codPro VARCHAR (6)&lt;/u&gt;&amp;nbsp;NOT NULL&amp;nbsp; &amp;nbsp; &amp;nbsp; &amp;nbsp;FK" style="text;strokeColor=none;fillColor=none;align=left;verticalAlign=middle;spacingLeft=4;spacingRight=4;overflow=hidden;points=[[0,0.5],[1,0.5]];portConstraint=eastwest;rotatable=0;whiteSpace=wrap;html=1;" parent="oVwKqEpw7itJaS_T92dx-1" vertex="1">
          <mxGeometry y="90" width="230" height="30" as="geometry" />
        </mxCell>
        <mxCell id="oVwKqEpw7itJaS_T92dx-5" value="detVenCan INT NOT NULL" style="text;strokeColor=none;fillColor=none;align=left;verticalAlign=middle;spacingLeft=4;spacingRight=4;overflow=hidden;points=[[0,0.5],[1,0.5]];portConstraint=eastwest;rotatable=0;whiteSpace=wrap;html=1;" parent="oVwKqEpw7itJaS_T92dx-1" vertex="1">
          <mxGeometry y="120" width="230" height="30" as="geometry" />
        </mxCell>
        <mxCell id="MN3j87kPTeBehLGBgUPZ-39" value="detVenDes INT NOT NULL" style="text;strokeColor=none;fillColor=none;align=left;verticalAlign=middle;spacingLeft=4;spacingRight=4;overflow=hidden;points=[[0,0.5],[1,0.5]];portConstraint=eastwest;rotatable=0;whiteSpace=wrap;html=1;" parent="oVwKqEpw7itJaS_T92dx-1" vertex="1">
          <mxGeometry y="150" width="230" height="30" as="geometry" />
        </mxCell>
        <mxCell id="oVwKqEpw7itJaS_T92dx-6" value="detVenValPar INT NOT NULL" style="text;strokeColor=none;fillColor=none;align=left;verticalAlign=middle;spacingLeft=4;spacingRight=4;overflow=hidden;points=[[0,0.5],[1,0.5]];portConstraint=eastwest;rotatable=0;whiteSpace=wrap;html=1;" parent="oVwKqEpw7itJaS_T92dx-1" vertex="1">
          <mxGeometry y="180" width="230" height="30" as="geometry" />
        </mxCell>
        <mxCell id="oVwKqEpw7itJaS_T92dx-8" value="" style="edgeStyle=orthogonalEdgeStyle;fontSize=12;html=1;endArrow=ERoneToMany;rounded=0;entryX=0;entryY=0.5;entryDx=0;entryDy=0;exitX=1;exitY=0.8;exitDx=0;exitDy=0;startSize=6;endSize=9;exitPerimeter=0;" parent="1" source="UHW693a0Wnq4BT_KecG--10" target="oVwKqEpw7itJaS_T92dx-3" edge="1">
          <mxGeometry width="100" height="100" relative="1" as="geometry">
            <mxPoint x="591" y="92" as="sourcePoint" />
            <mxPoint x="499" y="108" as="targetPoint" />
            <Array as="points">
              <mxPoint x="560" y="-126" />
              <mxPoint x="560" y="360" />
            </Array>
          </mxGeometry>
        </mxCell>
        <mxCell id="oVwKqEpw7itJaS_T92dx-9" value="" style="edgeStyle=orthogonalEdgeStyle;fontSize=12;html=1;endArrow=ERoneToMany;rounded=0;entryX=0;entryY=0.5;entryDx=0;entryDy=0;exitX=1;exitY=0.233;exitDx=0;exitDy=0;startSize=6;endSize=9;exitPerimeter=0;" parent="1" source="UHW693a0Wnq4BT_KecG--28" target="oVwKqEpw7itJaS_T92dx-4" edge="1">
          <mxGeometry width="100" height="100" relative="1" as="geometry">
            <mxPoint x="496" y="85" as="sourcePoint" />
            <mxPoint x="600" y="285" as="targetPoint" />
            <Array as="points">
              <mxPoint x="580" y="437" />
              <mxPoint x="580" y="390" />
            </Array>
          </mxGeometry>
        </mxCell>
        <mxCell id="UISFEy1dnGY1AOQaQV74-1" value="PedidoProveedor" style="swimlane;fontStyle=0;childLayout=stackLayout;horizontal=1;startSize=30;horizontalStack=0;resizeParent=1;resizeParentMax=0;resizeLast=0;collapsible=1;marginBottom=0;whiteSpace=wrap;html=1;fillColor=#ffcd28;strokeColor=#d79b00;gradientColor=#ffa500;" parent="1" vertex="1">
          <mxGeometry x="300" y="720" width="230" height="240" as="geometry" />
        </mxCell>
        <mxCell id="UISFEy1dnGY1AOQaQV74-2" value="&lt;u&gt;pedNum INT NOT NULL&lt;/u&gt;&amp;nbsp; &amp;nbsp; &amp;nbsp; &amp;nbsp; &amp;nbsp; &amp;nbsp; &amp;nbsp; &amp;nbsp; &amp;nbsp; &amp;nbsp;&amp;nbsp;&lt;b&gt;PK&lt;/b&gt;" style="text;strokeColor=none;fillColor=none;align=left;verticalAlign=middle;spacingLeft=4;spacingRight=4;overflow=hidden;points=[[0,0.5],[1,0.5]];portConstraint=eastwest;rotatable=0;whiteSpace=wrap;html=1;" parent="UISFEy1dnGY1AOQaQV74-1" vertex="1">
          <mxGeometry y="30" width="230" height="30" as="geometry" />
        </mxCell>
        <mxCell id="UISFEy1dnGY1AOQaQV74-3" value="&lt;u&gt;nitPro VARCHAR (15)&lt;/u&gt;&amp;nbsp;NOT NULL&amp;nbsp; &amp;nbsp; &amp;nbsp; FK" style="text;strokeColor=none;fillColor=none;align=left;verticalAlign=middle;spacingLeft=4;spacingRight=4;overflow=hidden;points=[[0,0.5],[1,0.5]];portConstraint=eastwest;rotatable=0;whiteSpace=wrap;html=1;" parent="UISFEy1dnGY1AOQaQV74-1" vertex="1">
          <mxGeometry y="60" width="230" height="30" as="geometry" />
        </mxCell>
        <mxCell id="Hx_mXP-tW_U6W2S-rnSu-26" value="&lt;u&gt;idTipPag&amp;nbsp; INT&lt;/u&gt; NOT NULL&amp;nbsp; &amp;nbsp; &amp;nbsp; &amp;nbsp; &amp;nbsp; &amp;nbsp; &amp;nbsp; &amp;nbsp; &amp;nbsp; &amp;nbsp;FK" style="text;strokeColor=none;fillColor=none;align=left;verticalAlign=middle;spacingLeft=4;spacingRight=4;overflow=hidden;points=[[0,0.5],[1,0.5]];portConstraint=eastwest;rotatable=0;whiteSpace=wrap;html=1;" parent="UISFEy1dnGY1AOQaQV74-1" vertex="1">
          <mxGeometry y="90" width="230" height="30" as="geometry" />
        </mxCell>
        <mxCell id="MN3j87kPTeBehLGBgUPZ-31" value="pedDesEsp&amp;nbsp; DECIMAL&lt;span style=&quot;white-space: pre;&quot;&gt;&#x9;&lt;/span&gt;" style="text;strokeColor=none;fillColor=none;align=left;verticalAlign=middle;spacingLeft=4;spacingRight=4;overflow=hidden;points=[[0,0.5],[1,0.5]];portConstraint=eastwest;rotatable=0;whiteSpace=wrap;html=1;" parent="UISFEy1dnGY1AOQaQV74-1" vertex="1">
          <mxGeometry y="120" width="230" height="30" as="geometry" />
        </mxCell>
        <mxCell id="UISFEy1dnGY1AOQaQV74-8" value="pedRutPag&amp;nbsp; VARCHAR NOT NULL" style="text;strokeColor=none;fillColor=none;align=left;verticalAlign=middle;spacingLeft=4;spacingRight=4;overflow=hidden;points=[[0,0.5],[1,0.5]];portConstraint=eastwest;rotatable=0;whiteSpace=wrap;html=1;" parent="UISFEy1dnGY1AOQaQV74-1" vertex="1">
          <mxGeometry y="150" width="230" height="30" as="geometry" />
        </mxCell>
        <mxCell id="MN3j87kPTeBehLGBgUPZ-30" value="pedPag BOOLEAN NOT NULL&amp;nbsp;" style="text;strokeColor=none;fillColor=none;align=left;verticalAlign=middle;spacingLeft=4;spacingRight=4;overflow=hidden;points=[[0,0.5],[1,0.5]];portConstraint=eastwest;rotatable=0;whiteSpace=wrap;html=1;" parent="UISFEy1dnGY1AOQaQV74-1" vertex="1">
          <mxGeometry y="180" width="230" height="30" as="geometry" />
        </mxCell>
        <mxCell id="Hx_mXP-tW_U6W2S-rnSu-27" value="pedPla&amp;nbsp; TIMESTAMP NOT NULL DEFAULT NOW" style="text;strokeColor=none;fillColor=none;align=left;verticalAlign=middle;spacingLeft=4;spacingRight=4;overflow=hidden;points=[[0,0.5],[1,0.5]];portConstraint=eastwest;rotatable=0;whiteSpace=wrap;html=1;" parent="UISFEy1dnGY1AOQaQV74-1" vertex="1">
          <mxGeometry y="210" width="230" height="30" as="geometry" />
        </mxCell>
        <mxCell id="UISFEy1dnGY1AOQaQV74-9" value="" style="edgeStyle=orthogonalEdgeStyle;fontSize=12;html=1;endArrow=ERoneToMany;rounded=0;endSize=9;exitX=1;exitY=0.5;exitDx=0;exitDy=0;entryX=0;entryY=0.5;entryDx=0;entryDy=0;" parent="1" source="UHW693a0Wnq4BT_KecG--34" target="UISFEy1dnGY1AOQaQV74-3" edge="1">
          <mxGeometry width="100" height="100" relative="1" as="geometry">
            <mxPoint x="156" y="548" as="sourcePoint" />
            <mxPoint x="-75" y="795" as="targetPoint" />
            <Array as="points">
              <mxPoint x="160" y="795" />
              <mxPoint x="160" y="795" />
            </Array>
          </mxGeometry>
        </mxCell>
        <mxCell id="yLPHmwctXrpFt8gfFYM9-5" value="Parametros" style="swimlane;fontStyle=0;childLayout=stackLayout;horizontal=1;startSize=30;horizontalStack=0;resizeParent=1;resizeParentMax=0;resizeLast=0;collapsible=1;marginBottom=0;whiteSpace=wrap;html=1;fillColor=#d5e8d4;strokeColor=#82b366;" parent="1" vertex="1">
          <mxGeometry x="-450" y="200" width="230" height="210" as="geometry" />
        </mxCell>
        <mxCell id="yLPHmwctXrpFt8gfFYM9-6" value="&lt;u&gt;empNit VARCHAR (15) NOT NULL&lt;/u&gt;&amp;nbsp; &amp;nbsp;&lt;b&gt;PK&lt;/b&gt;&amp;nbsp;" style="text;strokeColor=none;fillColor=none;align=left;verticalAlign=middle;spacingLeft=4;spacingRight=4;overflow=hidden;points=[[0,0.5],[1,0.5]];portConstraint=eastwest;rotatable=0;whiteSpace=wrap;html=1;" parent="yLPHmwctXrpFt8gfFYM9-5" vertex="1">
          <mxGeometry y="30" width="230" height="30" as="geometry" />
        </mxCell>
        <mxCell id="yLPHmwctXrpFt8gfFYM9-8" value="empNom VARCHAR (40) NOT NULL" style="text;strokeColor=none;fillColor=none;align=left;verticalAlign=middle;spacingLeft=4;spacingRight=4;overflow=hidden;points=[[0,0.5],[1,0.5]];portConstraint=eastwest;rotatable=0;whiteSpace=wrap;html=1;" parent="yLPHmwctXrpFt8gfFYM9-5" vertex="1">
          <mxGeometry y="60" width="230" height="30" as="geometry" />
        </mxCell>
        <mxCell id="yLPHmwctXrpFt8gfFYM9-9" value="numFacIni INT NOT NULL" style="text;strokeColor=none;fillColor=none;align=left;verticalAlign=middle;spacingLeft=4;spacingRight=4;overflow=hidden;points=[[0,0.5],[1,0.5]];portConstraint=eastwest;rotatable=0;whiteSpace=wrap;html=1;" parent="yLPHmwctXrpFt8gfFYM9-5" vertex="1">
          <mxGeometry y="90" width="230" height="30" as="geometry" />
        </mxCell>
        <mxCell id="ivB_Veweyuw7Kfkp-1CT-13" value="redPunDes INT NOT NULL" style="text;strokeColor=none;fillColor=none;align=left;verticalAlign=middle;spacingLeft=4;spacingRight=4;overflow=hidden;points=[[0,0.5],[1,0.5]];portConstraint=eastwest;rotatable=0;whiteSpace=wrap;html=1;" parent="yLPHmwctXrpFt8gfFYM9-5" vertex="1">
          <mxGeometry y="120" width="230" height="30" as="geometry" />
        </mxCell>
        <mxCell id="ivB_Veweyuw7Kfkp-1CT-14" value="redPunDom INT NOT NULL" style="text;strokeColor=none;fillColor=none;align=left;verticalAlign=middle;spacingLeft=4;spacingRight=4;overflow=hidden;points=[[0,0.5],[1,0.5]];portConstraint=eastwest;rotatable=0;whiteSpace=wrap;html=1;" parent="yLPHmwctXrpFt8gfFYM9-5" vertex="1">
          <mxGeometry y="150" width="230" height="30" as="geometry" />
        </mxCell>
        <mxCell id="yLPHmwctXrpFt8gfFYM9-11" value="admCon VARCHAR (20) NOT NULL" style="text;strokeColor=none;fillColor=none;align=left;verticalAlign=middle;spacingLeft=4;spacingRight=4;overflow=hidden;points=[[0,0.5],[1,0.5]];portConstraint=eastwest;rotatable=0;whiteSpace=wrap;html=1;" parent="yLPHmwctXrpFt8gfFYM9-5" vertex="1">
          <mxGeometry y="180" width="230" height="30" as="geometry" />
        </mxCell>
        <mxCell id="MN3j87kPTeBehLGBgUPZ-33" value="DetallePedido" style="swimlane;fontStyle=0;childLayout=stackLayout;horizontal=1;startSize=30;horizontalStack=0;resizeParent=1;resizeParentMax=0;resizeLast=0;collapsible=1;marginBottom=0;whiteSpace=wrap;html=1;fillColor=#ffcd28;strokeColor=#d79b00;gradientColor=#ffa500;" parent="1" vertex="1">
          <mxGeometry x="630" y="610" width="230" height="210" as="geometry" />
        </mxCell>
        <mxCell id="MN3j87kPTeBehLGBgUPZ-34" value="&lt;u&gt;numPed&lt;/u&gt;, &lt;u&gt;codPro&lt;/u&gt;&amp;nbsp; &amp;nbsp; &amp;nbsp; &amp;nbsp; &amp;nbsp; &amp;nbsp; &amp;nbsp; &amp;nbsp; &amp;nbsp; &amp;nbsp; &amp;nbsp; &amp;nbsp; &amp;nbsp; &amp;nbsp; &amp;nbsp; &amp;nbsp; &amp;nbsp;&amp;nbsp;&lt;b&gt;PK&lt;/b&gt;" style="text;strokeColor=none;fillColor=none;align=left;verticalAlign=middle;spacingLeft=4;spacingRight=4;overflow=hidden;points=[[0,0.5],[1,0.5]];portConstraint=eastwest;rotatable=0;whiteSpace=wrap;html=1;" parent="MN3j87kPTeBehLGBgUPZ-33" vertex="1">
          <mxGeometry y="30" width="230" height="30" as="geometry" />
        </mxCell>
        <mxCell id="MN3j87kPTeBehLGBgUPZ-35" value="&lt;u&gt;numPed INT&lt;/u&gt;&amp;nbsp;NOT NULL&amp;nbsp; &amp;nbsp; &amp;nbsp; &amp;nbsp; &amp;nbsp; &amp;nbsp; &amp;nbsp; &amp;nbsp; &amp;nbsp; &amp;nbsp; &amp;nbsp; FK" style="text;strokeColor=none;fillColor=none;align=left;verticalAlign=middle;spacingLeft=4;spacingRight=4;overflow=hidden;points=[[0,0.5],[1,0.5]];portConstraint=eastwest;rotatable=0;whiteSpace=wrap;html=1;" parent="MN3j87kPTeBehLGBgUPZ-33" vertex="1">
          <mxGeometry y="60" width="230" height="30" as="geometry" />
        </mxCell>
        <mxCell id="MN3j87kPTeBehLGBgUPZ-36" value="&lt;u&gt;codPro VARCHAR (6)&lt;/u&gt;&amp;nbsp;NOT NULL&amp;nbsp; &amp;nbsp; &amp;nbsp; &amp;nbsp;FK" style="text;strokeColor=none;fillColor=none;align=left;verticalAlign=middle;spacingLeft=4;spacingRight=4;overflow=hidden;points=[[0,0.5],[1,0.5]];portConstraint=eastwest;rotatable=0;whiteSpace=wrap;html=1;" parent="MN3j87kPTeBehLGBgUPZ-33" vertex="1">
          <mxGeometry y="90" width="230" height="30" as="geometry" />
        </mxCell>
        <mxCell id="MN3j87kPTeBehLGBgUPZ-37" value="detPedCan INT NOT NULL" style="text;strokeColor=none;fillColor=none;align=left;verticalAlign=middle;spacingLeft=4;spacingRight=4;overflow=hidden;points=[[0,0.5],[1,0.5]];portConstraint=eastwest;rotatable=0;whiteSpace=wrap;html=1;" parent="MN3j87kPTeBehLGBgUPZ-33" vertex="1">
          <mxGeometry y="120" width="230" height="30" as="geometry" />
        </mxCell>
        <mxCell id="Hx_mXP-tW_U6W2S-rnSu-28" value="detPedCos INT NOT NULL" style="text;strokeColor=none;fillColor=none;align=left;verticalAlign=middle;spacingLeft=4;spacingRight=4;overflow=hidden;points=[[0,0.5],[1,0.5]];portConstraint=eastwest;rotatable=0;whiteSpace=wrap;html=1;" parent="MN3j87kPTeBehLGBgUPZ-33" vertex="1">
          <mxGeometry y="150" width="230" height="30" as="geometry" />
        </mxCell>
        <mxCell id="MN3j87kPTeBehLGBgUPZ-38" value="detPedValPar INT NOT NULL" style="text;strokeColor=none;fillColor=none;align=left;verticalAlign=middle;spacingLeft=4;spacingRight=4;overflow=hidden;points=[[0,0.5],[1,0.5]];portConstraint=eastwest;rotatable=0;whiteSpace=wrap;html=1;" parent="MN3j87kPTeBehLGBgUPZ-33" vertex="1">
          <mxGeometry y="180" width="230" height="30" as="geometry" />
        </mxCell>
        <mxCell id="MN3j87kPTeBehLGBgUPZ-40" value="" style="edgeStyle=orthogonalEdgeStyle;fontSize=12;html=1;endArrow=ERoneToMany;rounded=0;entryX=0;entryY=0.5;entryDx=0;entryDy=0;exitX=1;exitY=0.5;exitDx=0;exitDy=0;startSize=6;endSize=9;" parent="1" source="UISFEy1dnGY1AOQaQV74-2" target="MN3j87kPTeBehLGBgUPZ-35" edge="1">
          <mxGeometry width="100" height="100" relative="1" as="geometry">
            <mxPoint x="530" y="455" as="sourcePoint" />
            <mxPoint x="635" y="400" as="targetPoint" />
            <Array as="points">
              <mxPoint x="580" y="765" />
              <mxPoint x="580" y="685" />
            </Array>
          </mxGeometry>
        </mxCell>
        <mxCell id="MN3j87kPTeBehLGBgUPZ-41" value="" style="edgeStyle=orthogonalEdgeStyle;fontSize=12;html=1;endArrow=ERoneToMany;rounded=0;entryX=1;entryY=0.5;entryDx=0;entryDy=0;exitX=1;exitY=0.5;exitDx=0;exitDy=0;startSize=6;endSize=9;" parent="1" source="UHW693a0Wnq4BT_KecG--28" target="MN3j87kPTeBehLGBgUPZ-36" edge="1">
          <mxGeometry width="100" height="100" relative="1" as="geometry">
            <mxPoint x="530" y="455" as="sourcePoint" />
            <mxPoint x="635" y="400" as="targetPoint" />
            <Array as="points">
              <mxPoint x="580" y="445" />
              <mxPoint x="580" y="560" />
              <mxPoint x="880" y="560" />
              <mxPoint x="880" y="715" />
            </Array>
          </mxGeometry>
        </mxCell>
        <mxCell id="bvKT32oD0-qzsxiZBk1q-2" value="EnvioLocal" style="swimlane;fontStyle=0;childLayout=stackLayout;horizontal=1;startSize=30;horizontalStack=0;resizeParent=1;resizeParentMax=0;resizeLast=0;collapsible=1;marginBottom=0;whiteSpace=wrap;html=1;fillColor=#ffcd28;strokeColor=#d79b00;gradientColor=#ffa500;" parent="1" vertex="1">
          <mxGeometry x="274" y="-920" width="280" height="360" as="geometry" />
        </mxCell>
        <mxCell id="bvKT32oD0-qzsxiZBk1q-3" value="&lt;u&gt;envLocNum&lt;/u&gt; INT NOT NULL&amp;nbsp; &amp;nbsp; &amp;nbsp; &amp;nbsp; &amp;nbsp; &amp;nbsp; &amp;nbsp; &amp;nbsp; &amp;nbsp; &amp;nbsp; &amp;nbsp; &amp;nbsp; &amp;nbsp; &amp;nbsp; &amp;nbsp;&lt;b&gt;PK&lt;/b&gt;" style="text;strokeColor=none;fillColor=none;align=left;verticalAlign=middle;spacingLeft=4;spacingRight=4;overflow=hidden;points=[[0,0.5],[1,0.5]];portConstraint=eastwest;rotatable=0;whiteSpace=wrap;html=1;" parent="bvKT32oD0-qzsxiZBk1q-2" vertex="1">
          <mxGeometry y="30" width="280" height="30" as="geometry" />
        </mxCell>
        <mxCell id="bvKT32oD0-qzsxiZBk1q-4" value="&lt;u&gt;numVen&lt;/u&gt;&amp;nbsp; INT NOT NULL&amp;nbsp; &amp;nbsp; &amp;nbsp; &amp;nbsp; &amp;nbsp; &amp;nbsp; &amp;nbsp; &amp;nbsp; &amp;nbsp; &amp;nbsp; &amp;nbsp; &amp;nbsp; &amp;nbsp; &amp;nbsp; &amp;nbsp; &amp;nbsp; &amp;nbsp; F&lt;b&gt;K&lt;/b&gt;&amp;nbsp;" style="text;strokeColor=none;fillColor=none;align=left;verticalAlign=middle;spacingLeft=4;spacingRight=4;overflow=hidden;points=[[0,0.5],[1,0.5]];portConstraint=eastwest;rotatable=0;whiteSpace=wrap;html=1;" parent="bvKT32oD0-qzsxiZBk1q-2" vertex="1">
          <mxGeometry y="60" width="280" height="30" as="geometry" />
        </mxCell>
        <mxCell id="bvKT32oD0-qzsxiZBk1q-33" value="&lt;u&gt;docMen&amp;nbsp; VARCHAR (10)&amp;nbsp; DEFAULT NULL&lt;/u&gt;&amp;nbsp; &amp;nbsp; &amp;nbsp; F&lt;b&gt;K&lt;/b&gt;&amp;nbsp;" style="text;strokeColor=none;fillColor=none;align=left;verticalAlign=middle;spacingLeft=4;spacingRight=4;overflow=hidden;points=[[0,0.5],[1,0.5]];portConstraint=eastwest;rotatable=0;whiteSpace=wrap;html=1;" parent="bvKT32oD0-qzsxiZBk1q-2" vertex="1">
          <mxGeometry y="90" width="280" height="30" as="geometry" />
        </mxCell>
        <mxCell id="Hx_mXP-tW_U6W2S-rnSu-13" value="&lt;u&gt;idCiu&amp;nbsp; INT NOT NULL&amp;nbsp;&lt;/u&gt; &amp;nbsp; &amp;nbsp; &amp;nbsp; &amp;nbsp; &amp;nbsp; &amp;nbsp; &amp;nbsp; &amp;nbsp; &amp;nbsp; &amp;nbsp; &amp;nbsp; &amp;nbsp; &amp;nbsp; &amp;nbsp; &amp;nbsp; &amp;nbsp;&amp;nbsp; &amp;nbsp; &amp;nbsp; F&lt;b&gt;K&lt;/b&gt;&amp;nbsp;" style="text;strokeColor=none;fillColor=none;align=left;verticalAlign=middle;spacingLeft=4;spacingRight=4;overflow=hidden;points=[[0,0.5],[1,0.5]];portConstraint=eastwest;rotatable=0;whiteSpace=wrap;html=1;" parent="bvKT32oD0-qzsxiZBk1q-2" vertex="1">
          <mxGeometry y="120" width="280" height="30" as="geometry" />
        </mxCell>
        <mxCell id="ivB_Veweyuw7Kfkp-1CT-1" value="envLocNomDes&amp;nbsp; VARCHAR NOT NULL" style="text;strokeColor=none;fillColor=none;align=left;verticalAlign=middle;spacingLeft=4;spacingRight=4;overflow=hidden;points=[[0,0.5],[1,0.5]];portConstraint=eastwest;rotatable=0;whiteSpace=wrap;html=1;" parent="bvKT32oD0-qzsxiZBk1q-2" vertex="1">
          <mxGeometry y="150" width="280" height="30" as="geometry" />
        </mxCell>
        <mxCell id="Hx_mXP-tW_U6W2S-rnSu-14" value="envLocDirDes&amp;nbsp; VARCHAR NOT NULL" style="text;strokeColor=none;fillColor=none;align=left;verticalAlign=middle;spacingLeft=4;spacingRight=4;overflow=hidden;points=[[0,0.5],[1,0.5]];portConstraint=eastwest;rotatable=0;whiteSpace=wrap;html=1;" parent="bvKT32oD0-qzsxiZBk1q-2" vertex="1">
          <mxGeometry y="180" width="280" height="30" as="geometry" />
        </mxCell>
        <mxCell id="Hx_mXP-tW_U6W2S-rnSu-15" value="envLocTelDes&amp;nbsp; VARCHAR NOT NULL" style="text;strokeColor=none;fillColor=none;align=left;verticalAlign=middle;spacingLeft=4;spacingRight=4;overflow=hidden;points=[[0,0.5],[1,0.5]];portConstraint=eastwest;rotatable=0;whiteSpace=wrap;html=1;" parent="bvKT32oD0-qzsxiZBk1q-2" vertex="1">
          <mxGeometry y="210" width="280" height="30" as="geometry" />
        </mxCell>
        <mxCell id="Hx_mXP-tW_U6W2S-rnSu-16" value="envLocPre&amp;nbsp; INT NOT NULL" style="text;strokeColor=none;fillColor=none;align=left;verticalAlign=middle;spacingLeft=4;spacingRight=4;overflow=hidden;points=[[0,0.5],[1,0.5]];portConstraint=eastwest;rotatable=0;whiteSpace=wrap;html=1;" parent="bvKT32oD0-qzsxiZBk1q-2" vertex="1">
          <mxGeometry y="240" width="280" height="30" as="geometry" />
        </mxCell>
        <mxCell id="Hx_mXP-tW_U6W2S-rnSu-17" value="envLocObs&amp;nbsp; VARCHAR&amp;nbsp; DEFAULT NULL" style="text;strokeColor=none;fillColor=none;align=left;verticalAlign=middle;spacingLeft=4;spacingRight=4;overflow=hidden;points=[[0,0.5],[1,0.5]];portConstraint=eastwest;rotatable=0;whiteSpace=wrap;html=1;" parent="bvKT32oD0-qzsxiZBk1q-2" vertex="1">
          <mxGeometry y="270" width="280" height="30" as="geometry" />
        </mxCell>
        <mxCell id="Hx_mXP-tW_U6W2S-rnSu-18" value="envLocSal&amp;nbsp; BOOLEAN NOT NULL DEFAULT FALSE" style="text;strokeColor=none;fillColor=none;align=left;verticalAlign=middle;spacingLeft=4;spacingRight=4;overflow=hidden;points=[[0,0.5],[1,0.5]];portConstraint=eastwest;rotatable=0;whiteSpace=wrap;html=1;" parent="bvKT32oD0-qzsxiZBk1q-2" vertex="1">
          <mxGeometry y="300" width="280" height="30" as="geometry" />
        </mxCell>
        <mxCell id="PfbbUTTBOxwGK-6L6V0u-1" value="envLocEnt&amp;nbsp; BOOLEAN NOT NULL DEFAULT FALSE" style="text;strokeColor=none;fillColor=none;align=left;verticalAlign=middle;spacingLeft=4;spacingRight=4;overflow=hidden;points=[[0,0.5],[1,0.5]];portConstraint=eastwest;rotatable=0;whiteSpace=wrap;html=1;" parent="bvKT32oD0-qzsxiZBk1q-2" vertex="1">
          <mxGeometry y="330" width="280" height="30" as="geometry" />
        </mxCell>
        <mxCell id="bvKT32oD0-qzsxiZBk1q-10" value="" style="edgeStyle=orthogonalEdgeStyle;fontSize=12;html=1;endArrow=ERoneToMany;rounded=0;exitX=0;exitY=0.5;exitDx=0;exitDy=0;entryX=0;entryY=0.5;entryDx=0;entryDy=0;endSize=9;" parent="1" source="UHW693a0Wnq4BT_KecG--10" target="bvKT32oD0-qzsxiZBk1q-4" edge="1">
          <mxGeometry width="100" height="100" relative="1" as="geometry">
            <mxPoint x="150" y="5" as="sourcePoint" />
            <mxPoint x="230" y="35" as="targetPoint" />
            <Array as="points">
              <mxPoint x="200" y="-135" />
              <mxPoint x="200" y="-845" />
            </Array>
          </mxGeometry>
        </mxCell>
        <mxCell id="bvKT32oD0-qzsxiZBk1q-11" value="Mensajero" style="swimlane;fontStyle=0;childLayout=stackLayout;horizontal=1;startSize=30;horizontalStack=0;resizeParent=1;resizeParentMax=0;resizeLast=0;collapsible=1;marginBottom=0;whiteSpace=wrap;html=1;fillColor=#ffcd28;strokeColor=#d79b00;gradientColor=#ffa500;" parent="1" vertex="1">
          <mxGeometry x="-95" y="-430" width="250" height="360" as="geometry" />
        </mxCell>
        <mxCell id="bvKT32oD0-qzsxiZBk1q-12" value="&lt;u&gt;menDoc VARCHAR (10)&lt;/u&gt;&amp;nbsp;NOT NULL&amp;nbsp; &amp;nbsp; &amp;nbsp; &amp;nbsp; &lt;b&gt;PK&lt;/b&gt;" style="text;strokeColor=none;fillColor=none;align=left;verticalAlign=middle;spacingLeft=4;spacingRight=4;overflow=hidden;points=[[0,0.5],[1,0.5]];portConstraint=eastwest;rotatable=0;whiteSpace=wrap;html=1;" parent="bvKT32oD0-qzsxiZBk1q-11" vertex="1">
          <mxGeometry y="30" width="250" height="30" as="geometry" />
        </mxCell>
        <mxCell id="bvKT32oD0-qzsxiZBk1q-31" value="&lt;u&gt;idRol INT&lt;/u&gt;&amp;nbsp;NOT NULL&amp;nbsp; &amp;nbsp; &amp;nbsp; &amp;nbsp; &amp;nbsp; &amp;nbsp; &amp;nbsp; &amp;nbsp; &amp;nbsp; &amp;nbsp; &amp;nbsp; &amp;nbsp; &amp;nbsp; &amp;nbsp; &amp;nbsp; &amp;nbsp;&amp;nbsp;&lt;b&gt;FK&lt;/b&gt;" style="text;strokeColor=none;fillColor=none;align=left;verticalAlign=middle;spacingLeft=4;spacingRight=4;overflow=hidden;points=[[0,0.5],[1,0.5]];portConstraint=eastwest;rotatable=0;whiteSpace=wrap;html=1;" parent="bvKT32oD0-qzsxiZBk1q-11" vertex="1">
          <mxGeometry y="60" width="250" height="30" as="geometry" />
        </mxCell>
        <mxCell id="bvKT32oD0-qzsxiZBk1q-14" value="menNom VARCHAR (60) NOT NULL" style="text;strokeColor=none;fillColor=none;align=left;verticalAlign=middle;spacingLeft=4;spacingRight=4;overflow=hidden;points=[[0,0.5],[1,0.5]];portConstraint=eastwest;rotatable=0;whiteSpace=wrap;html=1;" parent="bvKT32oD0-qzsxiZBk1q-11" vertex="1">
          <mxGeometry y="90" width="250" height="30" as="geometry" />
        </mxCell>
        <mxCell id="bvKT32oD0-qzsxiZBk1q-15" value="menDir VARCHAR (80) NOT NULL" style="text;strokeColor=none;fillColor=none;align=left;verticalAlign=middle;spacingLeft=4;spacingRight=4;overflow=hidden;points=[[0,0.5],[1,0.5]];portConstraint=eastwest;rotatable=0;whiteSpace=wrap;html=1;" parent="bvKT32oD0-qzsxiZBk1q-11" vertex="1">
          <mxGeometry y="120" width="250" height="30" as="geometry" />
        </mxCell>
        <mxCell id="bvKT32oD0-qzsxiZBk1q-16" value="menTel Varchar (10) NOT NULL" style="text;strokeColor=none;fillColor=none;align=left;verticalAlign=middle;spacingLeft=4;spacingRight=4;overflow=hidden;points=[[0,0.5],[1,0.5]];portConstraint=eastwest;rotatable=0;whiteSpace=wrap;html=1;" parent="bvKT32oD0-qzsxiZBk1q-11" vertex="1">
          <mxGeometry y="150" width="250" height="30" as="geometry" />
        </mxCell>
        <mxCell id="bvKT32oD0-qzsxiZBk1q-17" value="menEma VARCHAR (50) NOT NULL" style="text;strokeColor=none;fillColor=none;align=left;verticalAlign=middle;spacingLeft=4;spacingRight=4;overflow=hidden;points=[[0,0.5],[1,0.5]];portConstraint=eastwest;rotatable=0;whiteSpace=wrap;html=1;" parent="bvKT32oD0-qzsxiZBk1q-11" vertex="1">
          <mxGeometry y="180" width="250" height="30" as="geometry" />
        </mxCell>
        <mxCell id="bvKT32oD0-qzsxiZBk1q-19" value="menCon VARCHAR (20) NOT NULL" style="text;strokeColor=none;fillColor=none;align=left;verticalAlign=middle;spacingLeft=4;spacingRight=4;overflow=hidden;points=[[0,0.5],[1,0.5]];portConstraint=eastwest;rotatable=0;whiteSpace=wrap;html=1;" parent="bvKT32oD0-qzsxiZBk1q-11" vertex="1">
          <mxGeometry y="210" width="250" height="30" as="geometry" />
        </mxCell>
        <mxCell id="ivB_Veweyuw7Kfkp-1CT-11" value="menDis BOOLEAN DEFAULT TRUE &lt;br&gt;NOT NULL" style="text;strokeColor=none;fillColor=none;align=left;verticalAlign=middle;spacingLeft=4;spacingRight=4;overflow=hidden;points=[[0,0.5],[1,0.5]];portConstraint=eastwest;rotatable=0;whiteSpace=wrap;html=1;" parent="bvKT32oD0-qzsxiZBk1q-11" vertex="1">
          <mxGeometry y="240" width="250" height="30" as="geometry" />
        </mxCell>
        <mxCell id="Hx_mXP-tW_U6W2S-rnSu-7" value="menAct BOOLEAN NOT NULL DEFAULT TRUE" style="text;strokeColor=none;fillColor=none;align=left;verticalAlign=middle;spacingLeft=4;spacingRight=4;overflow=hidden;points=[[0,0.5],[1,0.5]];portConstraint=eastwest;rotatable=0;whiteSpace=wrap;html=1;" parent="bvKT32oD0-qzsxiZBk1q-11" vertex="1">
          <mxGeometry y="270" width="250" height="30" as="geometry" />
        </mxCell>
        <mxCell id="bvKT32oD0-qzsxiZBk1q-20" value="menFecReg TIMESTAMP DEFAULT CURRENT_TIMESTAMP NOT NULL" style="text;strokeColor=none;fillColor=none;align=left;verticalAlign=middle;spacingLeft=4;spacingRight=4;overflow=hidden;points=[[0,0.5],[1,0.5]];portConstraint=eastwest;rotatable=0;whiteSpace=wrap;html=1;" parent="bvKT32oD0-qzsxiZBk1q-11" vertex="1">
          <mxGeometry y="300" width="250" height="60" as="geometry" />
        </mxCell>
        <mxCell id="bvKT32oD0-qzsxiZBk1q-21" value="Rol" style="swimlane;fontStyle=0;childLayout=stackLayout;horizontal=1;startSize=30;horizontalStack=0;resizeParent=1;resizeParentMax=0;resizeLast=0;collapsible=1;marginBottom=0;whiteSpace=wrap;html=1;fillColor=#ffcd28;strokeColor=#d79b00;gradientColor=#ffa500;" parent="1" vertex="1">
          <mxGeometry x="-465" y="-460" width="260" height="90" as="geometry" />
        </mxCell>
        <mxCell id="bvKT32oD0-qzsxiZBk1q-22" value="&lt;u&gt;rolId&lt;/u&gt;&amp;nbsp; INT NOT NULL&amp;nbsp; &amp;nbsp; &amp;nbsp; &amp;nbsp; &amp;nbsp; &amp;nbsp; &amp;nbsp; &amp;nbsp; &amp;nbsp; &amp;nbsp; &amp;nbsp; &amp;nbsp; &amp;nbsp; &amp;nbsp; &amp;nbsp; &amp;nbsp; &amp;nbsp;&lt;b&gt;PK&lt;/b&gt;" style="text;strokeColor=none;fillColor=none;align=left;verticalAlign=middle;spacingLeft=4;spacingRight=4;overflow=hidden;points=[[0,0.5],[1,0.5]];portConstraint=eastwest;rotatable=0;whiteSpace=wrap;html=1;" parent="bvKT32oD0-qzsxiZBk1q-21" vertex="1">
          <mxGeometry y="30" width="260" height="30" as="geometry" />
        </mxCell>
        <mxCell id="bvKT32oD0-qzsxiZBk1q-26" value="rolNom VARCHAR (15) NOT NULL" style="text;strokeColor=none;fillColor=none;align=left;verticalAlign=middle;spacingLeft=4;spacingRight=4;overflow=hidden;points=[[0,0.5],[1,0.5]];portConstraint=eastwest;rotatable=0;whiteSpace=wrap;html=1;fontStyle=0" parent="bvKT32oD0-qzsxiZBk1q-21" vertex="1">
          <mxGeometry y="60" width="260" height="30" as="geometry" />
        </mxCell>
        <mxCell id="bvKT32oD0-qzsxiZBk1q-27" value="" style="fontSize=12;html=1;endArrow=ERoneToMany;rounded=0;endSize=9;entryX=0;entryY=0.5;entryDx=0;entryDy=0;edgeStyle=orthogonalEdgeStyle;jumpStyle=arc;jumpSize=23;exitX=1;exitY=0.8;exitDx=0;exitDy=0;exitPerimeter=0;" parent="1" source="bvKT32oD0-qzsxiZBk1q-22" target="bvKT32oD0-qzsxiZBk1q-25" edge="1">
          <mxGeometry width="100" height="100" relative="1" as="geometry">
            <mxPoint x="-205" y="-300" as="sourcePoint" />
            <mxPoint x="-195" y="5" as="targetPoint" />
            <Array as="points">
              <mxPoint x="-190" y="-406" />
              <mxPoint x="-190" y="55" />
            </Array>
          </mxGeometry>
        </mxCell>
        <mxCell id="bvKT32oD0-qzsxiZBk1q-32" value="" style="fontSize=12;html=1;endArrow=ERoneToMany;rounded=0;exitX=1;exitY=0.5;exitDx=0;exitDy=0;endSize=9;entryX=0;entryY=0.5;entryDx=0;entryDy=0;edgeStyle=orthogonalEdgeStyle;" parent="1" source="bvKT32oD0-qzsxiZBk1q-22" target="bvKT32oD0-qzsxiZBk1q-31" edge="1">
          <mxGeometry width="100" height="100" relative="1" as="geometry">
            <mxPoint x="-70" y="5" as="sourcePoint" />
            <mxPoint x="-195" y="5" as="targetPoint" />
            <Array as="points">
              <mxPoint x="-150" y="-415" />
              <mxPoint x="-150" y="-355" />
            </Array>
          </mxGeometry>
        </mxCell>
        <mxCell id="bvKT32oD0-qzsxiZBk1q-34" value="" style="edgeStyle=orthogonalEdgeStyle;fontSize=12;html=1;endArrow=ERoneToMany;rounded=0;exitX=1;exitY=0.5;exitDx=0;exitDy=0;entryX=0;entryY=0.5;entryDx=0;entryDy=0;endSize=9;jumpStyle=arc;jumpSize=23;" parent="1" source="bvKT32oD0-qzsxiZBk1q-12" target="bvKT32oD0-qzsxiZBk1q-33" edge="1">
          <mxGeometry width="100" height="100" relative="1" as="geometry">
            <mxPoint x="230" y="5" as="sourcePoint" />
            <mxPoint x="250" y="-345" as="targetPoint" />
            <Array as="points">
              <mxPoint x="180" y="-385" />
              <mxPoint x="180" y="-325" />
              <mxPoint x="240" y="-325" />
              <mxPoint x="240" y="-815" />
            </Array>
          </mxGeometry>
        </mxCell>
        <mxCell id="bvKT32oD0-qzsxiZBk1q-36" value="EnvioNacional" style="swimlane;fontStyle=0;childLayout=stackLayout;horizontal=1;startSize=30;horizontalStack=0;resizeParent=1;resizeParentMax=0;resizeLast=0;collapsible=1;marginBottom=0;whiteSpace=wrap;html=1;fillColor=#ffcd28;strokeColor=#d79b00;gradientColor=#ffa500;" parent="1" vertex="1">
          <mxGeometry x="625" y="-500" width="260" height="480" as="geometry" />
        </mxCell>
        <mxCell id="bvKT32oD0-qzsxiZBk1q-37" value="&lt;u&gt;envNacNum&lt;/u&gt; INT NOT NULL&amp;nbsp; &amp;nbsp; &amp;nbsp; &amp;nbsp; &amp;nbsp; &amp;nbsp; &amp;nbsp; &amp;nbsp; &amp;nbsp; &amp;nbsp; &amp;nbsp;&amp;nbsp;&lt;b&gt;PK&lt;/b&gt;" style="text;strokeColor=none;fillColor=none;align=left;verticalAlign=middle;spacingLeft=4;spacingRight=4;overflow=hidden;points=[[0,0.5],[1,0.5]];portConstraint=eastwest;rotatable=0;whiteSpace=wrap;html=1;" parent="bvKT32oD0-qzsxiZBk1q-36" vertex="1">
          <mxGeometry y="30" width="260" height="30" as="geometry" />
        </mxCell>
        <mxCell id="bvKT32oD0-qzsxiZBk1q-38" value="&lt;u&gt;numVen&lt;/u&gt;&amp;nbsp; INT NOT NULL&amp;nbsp; &amp;nbsp; &amp;nbsp; &amp;nbsp; &amp;nbsp; &amp;nbsp; &amp;nbsp; &amp;nbsp; &amp;nbsp; &amp;nbsp; &amp;nbsp; &amp;nbsp; &amp;nbsp; &amp;nbsp; F&lt;b&gt;K&lt;/b&gt;&amp;nbsp;" style="text;strokeColor=none;fillColor=none;align=left;verticalAlign=middle;spacingLeft=4;spacingRight=4;overflow=hidden;points=[[0,0.5],[1,0.5]];portConstraint=eastwest;rotatable=0;whiteSpace=wrap;html=1;" parent="bvKT32oD0-qzsxiZBk1q-36" vertex="1">
          <mxGeometry y="60" width="260" height="30" as="geometry" />
        </mxCell>
        <mxCell id="61FQVvXKAMuJR3-rqrtT-2" value="&lt;u&gt;docMen&amp;nbsp;&lt;/u&gt;&amp;nbsp;VARCHAR (10) NOT NULL&amp;nbsp; &amp;nbsp; &amp;nbsp; &amp;nbsp; &amp;nbsp; &amp;nbsp;F&lt;b&gt;K&lt;/b&gt;&amp;nbsp;" style="text;strokeColor=none;fillColor=none;align=left;verticalAlign=middle;spacingLeft=4;spacingRight=4;overflow=hidden;points=[[0,0.5],[1,0.5]];portConstraint=eastwest;rotatable=0;whiteSpace=wrap;html=1;" parent="bvKT32oD0-qzsxiZBk1q-36" vertex="1">
          <mxGeometry y="90" width="260" height="30" as="geometry" />
        </mxCell>
        <mxCell id="Hx_mXP-tW_U6W2S-rnSu-19" value="&lt;u style=&quot;border-color: var(--border-color);&quot;&gt;idCiu&amp;nbsp; INT NOT NULL&amp;nbsp;&lt;/u&gt;&amp;nbsp;&amp;nbsp; &amp;nbsp; &amp;nbsp; &amp;nbsp; &amp;nbsp; &amp;nbsp; &amp;nbsp; &amp;nbsp; &amp;nbsp; &amp;nbsp; &amp;nbsp; &amp;nbsp; &amp;nbsp; &amp;nbsp; &amp;nbsp; &amp;nbsp; F&lt;b style=&quot;border-color: var(--border-color);&quot;&gt;K&lt;/b&gt;&amp;nbsp;" style="text;strokeColor=none;fillColor=none;align=left;verticalAlign=middle;spacingLeft=4;spacingRight=4;overflow=hidden;points=[[0,0.5],[1,0.5]];portConstraint=eastwest;rotatable=0;whiteSpace=wrap;html=1;" parent="bvKT32oD0-qzsxiZBk1q-36" vertex="1">
          <mxGeometry y="120" width="260" height="30" as="geometry" />
        </mxCell>
        <mxCell id="bvKT32oD0-qzsxiZBk1q-39" value="&lt;u&gt;nitEmpTra&amp;nbsp; VARCHAR (15)&lt;/u&gt;&amp;nbsp;NOT NULL&amp;nbsp; &amp;nbsp; &amp;nbsp; &amp;nbsp;F&lt;b&gt;K&lt;/b&gt;&amp;nbsp;" style="text;strokeColor=none;fillColor=none;align=left;verticalAlign=middle;spacingLeft=4;spacingRight=4;overflow=hidden;points=[[0,0.5],[1,0.5]];portConstraint=eastwest;rotatable=0;whiteSpace=wrap;html=1;" parent="bvKT32oD0-qzsxiZBk1q-36" vertex="1">
          <mxGeometry y="150" width="260" height="30" as="geometry" />
        </mxCell>
        <mxCell id="ivB_Veweyuw7Kfkp-1CT-24" value="envNacNomDes&amp;nbsp; VARCHAR NOT NULL" style="text;strokeColor=none;fillColor=none;align=left;verticalAlign=middle;spacingLeft=4;spacingRight=4;overflow=hidden;points=[[0,0.5],[1,0.5]];portConstraint=eastwest;rotatable=0;whiteSpace=wrap;html=1;" parent="bvKT32oD0-qzsxiZBk1q-36" vertex="1">
          <mxGeometry y="180" width="260" height="30" as="geometry" />
        </mxCell>
        <mxCell id="ivB_Veweyuw7Kfkp-1CT-25" value="envNacDirDes&amp;nbsp; VARCHAR NOT NULL" style="text;strokeColor=none;fillColor=none;align=left;verticalAlign=middle;spacingLeft=4;spacingRight=4;overflow=hidden;points=[[0,0.5],[1,0.5]];portConstraint=eastwest;rotatable=0;whiteSpace=wrap;html=1;" parent="bvKT32oD0-qzsxiZBk1q-36" vertex="1">
          <mxGeometry y="210" width="260" height="30" as="geometry" />
        </mxCell>
        <mxCell id="bvKT32oD0-qzsxiZBk1q-42" value="envNacTelDes&amp;nbsp; VARCHAR NOT NULL" style="text;strokeColor=none;fillColor=none;align=left;verticalAlign=middle;spacingLeft=4;spacingRight=4;overflow=hidden;points=[[0,0.5],[1,0.5]];portConstraint=eastwest;rotatable=0;whiteSpace=wrap;html=1;" parent="bvKT32oD0-qzsxiZBk1q-36" vertex="1">
          <mxGeometry y="240" width="260" height="40" as="geometry" />
        </mxCell>
        <mxCell id="Hx_mXP-tW_U6W2S-rnSu-21" value="envNacPre&amp;nbsp; INT NOT NULL" style="text;strokeColor=none;fillColor=none;align=left;verticalAlign=middle;spacingLeft=4;spacingRight=4;overflow=hidden;points=[[0,0.5],[1,0.5]];portConstraint=eastwest;rotatable=0;whiteSpace=wrap;html=1;" parent="bvKT32oD0-qzsxiZBk1q-36" vertex="1">
          <mxGeometry y="280" width="260" height="40" as="geometry" />
        </mxCell>
        <mxCell id="Hx_mXP-tW_U6W2S-rnSu-22" value="envNacObs&amp;nbsp; VARCHAR DEFAULT NULL" style="text;strokeColor=none;fillColor=none;align=left;verticalAlign=middle;spacingLeft=4;spacingRight=4;overflow=hidden;points=[[0,0.5],[1,0.5]];portConstraint=eastwest;rotatable=0;whiteSpace=wrap;html=1;" parent="bvKT32oD0-qzsxiZBk1q-36" vertex="1">
          <mxGeometry y="320" width="260" height="40" as="geometry" />
        </mxCell>
        <mxCell id="Hx_mXP-tW_U6W2S-rnSu-23" value="envNacSal&amp;nbsp; BOOLEAN NOT NULL DEFAULT FALSE" style="text;strokeColor=none;fillColor=none;align=left;verticalAlign=middle;spacingLeft=4;spacingRight=4;overflow=hidden;points=[[0,0.5],[1,0.5]];portConstraint=eastwest;rotatable=0;whiteSpace=wrap;html=1;" parent="bvKT32oD0-qzsxiZBk1q-36" vertex="1">
          <mxGeometry y="360" width="260" height="40" as="geometry" />
        </mxCell>
        <mxCell id="PfbbUTTBOxwGK-6L6V0u-2" value="envNacRec&amp;nbsp; BOOLEAN NOT NULL DEFAULT FALSE" style="text;strokeColor=none;fillColor=none;align=left;verticalAlign=middle;spacingLeft=4;spacingRight=4;overflow=hidden;points=[[0,0.5],[1,0.5]];portConstraint=eastwest;rotatable=0;whiteSpace=wrap;html=1;" parent="bvKT32oD0-qzsxiZBk1q-36" vertex="1">
          <mxGeometry y="400" width="260" height="40" as="geometry" />
        </mxCell>
        <mxCell id="Hx_mXP-tW_U6W2S-rnSu-25" value="envNacRut&amp;nbsp; VARCHAR DEFAULT NULL" style="text;strokeColor=none;fillColor=none;align=left;verticalAlign=middle;spacingLeft=4;spacingRight=4;overflow=hidden;points=[[0,0.5],[1,0.5]];portConstraint=eastwest;rotatable=0;whiteSpace=wrap;html=1;" parent="bvKT32oD0-qzsxiZBk1q-36" vertex="1">
          <mxGeometry y="440" width="260" height="40" as="geometry" />
        </mxCell>
        <mxCell id="bvKT32oD0-qzsxiZBk1q-43" value="EmpresaTransporte" style="swimlane;fontStyle=0;childLayout=stackLayout;horizontal=1;startSize=30;horizontalStack=0;resizeParent=1;resizeParentMax=0;resizeLast=0;collapsible=1;marginBottom=0;whiteSpace=wrap;html=1;fillColor=#ffcd28;strokeColor=#d79b00;gradientColor=#ffa500;" parent="1" vertex="1">
          <mxGeometry x="980" y="-310" width="270" height="120" as="geometry" />
        </mxCell>
        <mxCell id="bvKT32oD0-qzsxiZBk1q-44" value="&lt;u&gt;empTraNit&lt;/u&gt; VARCHAR (15) NOT NULL&amp;nbsp; &amp;nbsp; &amp;nbsp; &amp;nbsp; &amp;nbsp; &lt;b&gt;PK&lt;/b&gt;" style="text;strokeColor=none;fillColor=none;align=left;verticalAlign=middle;spacingLeft=4;spacingRight=4;overflow=hidden;points=[[0,0.5],[1,0.5]];portConstraint=eastwest;rotatable=0;whiteSpace=wrap;html=1;" parent="bvKT32oD0-qzsxiZBk1q-43" vertex="1">
          <mxGeometry y="30" width="270" height="30" as="geometry" />
        </mxCell>
        <mxCell id="bvKT32oD0-qzsxiZBk1q-45" value="empTraNom&amp;nbsp;VARCHAR (30) NOT NULL&amp;nbsp; &amp;nbsp;" style="text;strokeColor=none;fillColor=none;align=left;verticalAlign=middle;spacingLeft=4;spacingRight=4;overflow=hidden;points=[[0,0.5],[1,0.5]];portConstraint=eastwest;rotatable=0;whiteSpace=wrap;html=1;" parent="bvKT32oD0-qzsxiZBk1q-43" vertex="1">
          <mxGeometry y="60" width="270" height="30" as="geometry" />
        </mxCell>
        <mxCell id="bvKT32oD0-qzsxiZBk1q-46" value="empTraTel&amp;nbsp; VARCHAR (10)&amp;nbsp;NOT NULL&amp;nbsp;" style="text;strokeColor=none;fillColor=none;align=left;verticalAlign=middle;spacingLeft=4;spacingRight=4;overflow=hidden;points=[[0,0.5],[1,0.5]];portConstraint=eastwest;rotatable=0;whiteSpace=wrap;html=1;" parent="bvKT32oD0-qzsxiZBk1q-43" vertex="1">
          <mxGeometry y="90" width="270" height="30" as="geometry" />
        </mxCell>
        <mxCell id="bvKT32oD0-qzsxiZBk1q-50" value="" style="edgeStyle=orthogonalEdgeStyle;fontSize=12;html=1;endArrow=ERoneToMany;rounded=0;entryX=1;entryY=0.5;entryDx=0;entryDy=0;exitX=0;exitY=0.5;exitDx=0;exitDy=0;startSize=6;endSize=9;" parent="1" source="bvKT32oD0-qzsxiZBk1q-44" target="bvKT32oD0-qzsxiZBk1q-39" edge="1">
          <mxGeometry width="100" height="100" relative="1" as="geometry">
            <mxPoint x="510" y="5" as="sourcePoint" />
            <mxPoint x="635" y="35" as="targetPoint" />
            <Array as="points">
              <mxPoint x="930" y="-265" />
              <mxPoint x="930" y="-335" />
            </Array>
          </mxGeometry>
        </mxCell>
        <mxCell id="bvKT32oD0-qzsxiZBk1q-52" value="" style="edgeStyle=orthogonalEdgeStyle;fontSize=12;html=1;endArrow=ERoneToMany;rounded=0;entryX=0;entryY=0.5;entryDx=0;entryDy=0;exitX=0.996;exitY=0.2;exitDx=0;exitDy=0;startSize=6;endSize=9;exitPerimeter=0;" parent="1" source="UHW693a0Wnq4BT_KecG--10" target="bvKT32oD0-qzsxiZBk1q-38" edge="1">
          <mxGeometry width="100" height="100" relative="1" as="geometry">
            <mxPoint x="510" y="5" as="sourcePoint" />
            <mxPoint x="635" y="35" as="targetPoint" />
            <Array as="points">
              <mxPoint x="600" y="-144" />
              <mxPoint x="600" y="-425" />
            </Array>
          </mxGeometry>
        </mxCell>
        <mxCell id="ivB_Veweyuw7Kfkp-1CT-15" value="RedencionPuntos" style="swimlane;fontStyle=0;childLayout=stackLayout;horizontal=1;startSize=30;horizontalStack=0;resizeParent=1;resizeParentMax=0;resizeLast=0;collapsible=1;marginBottom=0;whiteSpace=wrap;html=1;fillColor=#ffcd28;strokeColor=#d79b00;gradientColor=#ffa500;" parent="1" vertex="1">
          <mxGeometry x="655" y="50" width="230" height="150" as="geometry" />
        </mxCell>
        <mxCell id="ivB_Veweyuw7Kfkp-1CT-16" value="&lt;u&gt;redNum INT NOT NULL&lt;/u&gt;&amp;nbsp; &amp;nbsp; &amp;nbsp; &amp;nbsp; &amp;nbsp; &amp;nbsp; &amp;nbsp; &amp;nbsp; &amp;nbsp; &amp;nbsp; &amp;nbsp;&lt;b&gt;PK&lt;/b&gt;&amp;nbsp;" style="text;strokeColor=none;fillColor=none;align=left;verticalAlign=middle;spacingLeft=4;spacingRight=4;overflow=hidden;points=[[0,0.5],[1,0.5]];portConstraint=eastwest;rotatable=0;whiteSpace=wrap;html=1;" parent="ivB_Veweyuw7Kfkp-1CT-15" vertex="1">
          <mxGeometry y="30" width="230" height="30" as="geometry" />
        </mxCell>
        <mxCell id="ivB_Veweyuw7Kfkp-1CT-17" value="numVen INT NOT NULL&amp;nbsp; &amp;nbsp; &amp;nbsp; &amp;nbsp; &amp;nbsp; &amp;nbsp; &amp;nbsp; &amp;nbsp; &amp;nbsp; &amp;nbsp; &amp;nbsp;FK" style="text;strokeColor=none;fillColor=none;align=left;verticalAlign=middle;spacingLeft=4;spacingRight=4;overflow=hidden;points=[[0,0.5],[1,0.5]];portConstraint=eastwest;rotatable=0;whiteSpace=wrap;html=1;" parent="ivB_Veweyuw7Kfkp-1CT-15" vertex="1">
          <mxGeometry y="60" width="230" height="30" as="geometry" />
        </mxCell>
        <mxCell id="ivB_Veweyuw7Kfkp-1CT-18" value="redCanRed&amp;nbsp; INT NOT NULL" style="text;strokeColor=none;fillColor=none;align=left;verticalAlign=middle;spacingLeft=4;spacingRight=4;overflow=hidden;points=[[0,0.5],[1,0.5]];portConstraint=eastwest;rotatable=0;whiteSpace=wrap;html=1;" parent="ivB_Veweyuw7Kfkp-1CT-15" vertex="1">
          <mxGeometry y="90" width="230" height="30" as="geometry" />
        </mxCell>
        <mxCell id="ivB_Veweyuw7Kfkp-1CT-19" value="redDes BOOLEAN&amp;nbsp; NOT NULL" style="text;strokeColor=none;fillColor=none;align=left;verticalAlign=middle;spacingLeft=4;spacingRight=4;overflow=hidden;points=[[0,0.5],[1,0.5]];portConstraint=eastwest;rotatable=0;whiteSpace=wrap;html=1;" parent="ivB_Veweyuw7Kfkp-1CT-15" vertex="1">
          <mxGeometry y="120" width="230" height="30" as="geometry" />
        </mxCell>
        <mxCell id="t3XefT4DrZrVAsHFot_A-2" value="Departamento" style="swimlane;fontStyle=0;childLayout=stackLayout;horizontal=1;startSize=30;horizontalStack=0;resizeParent=1;resizeParentMax=0;resizeLast=0;collapsible=1;marginBottom=0;whiteSpace=wrap;html=1;fillColor=#ffcd28;strokeColor=#d79b00;gradientColor=#ffa500;" parent="1" vertex="1">
          <mxGeometry x="-440" y="550" width="210" height="90" as="geometry" />
        </mxCell>
        <mxCell id="t3XefT4DrZrVAsHFot_A-3" value="&lt;u&gt;depId INT NOT NULL&lt;/u&gt;&amp;nbsp; &amp;nbsp; &amp;nbsp; &amp;nbsp; &amp;nbsp; &amp;nbsp; &amp;nbsp; &amp;nbsp; &amp;nbsp; &amp;nbsp;&amp;nbsp;&lt;b&gt;PK&lt;/b&gt;" style="text;strokeColor=none;fillColor=none;align=left;verticalAlign=middle;spacingLeft=4;spacingRight=4;overflow=hidden;points=[[0,0.5],[1,0.5]];portConstraint=eastwest;rotatable=0;whiteSpace=wrap;html=1;" parent="t3XefT4DrZrVAsHFot_A-2" vertex="1">
          <mxGeometry y="30" width="210" height="30" as="geometry" />
        </mxCell>
        <mxCell id="t3XefT4DrZrVAsHFot_A-5" value="depNom VARCHAR (30) NOT NULL" style="text;strokeColor=none;fillColor=none;align=left;verticalAlign=middle;spacingLeft=4;spacingRight=4;overflow=hidden;points=[[0,0.5],[1,0.5]];portConstraint=eastwest;rotatable=0;whiteSpace=wrap;html=1;" parent="t3XefT4DrZrVAsHFot_A-2" vertex="1">
          <mxGeometry y="60" width="210" height="30" as="geometry" />
        </mxCell>
        <mxCell id="t3XefT4DrZrVAsHFot_A-6" value="" style="edgeStyle=orthogonalEdgeStyle;fontSize=12;html=1;endArrow=ERoneToMany;rounded=0;endSize=9;exitX=1;exitY=0.5;exitDx=0;exitDy=0;entryX=0;entryY=0.5;entryDx=0;entryDy=0;jumpStyle=arc;jumpSize=26;" parent="1" source="t3XefT4DrZrVAsHFot_A-3" target="t3XefT4DrZrVAsHFot_A-1" edge="1">
          <mxGeometry width="100" height="100" relative="1" as="geometry">
            <mxPoint x="-70" y="385" as="sourcePoint" />
            <mxPoint x="-75" y="565" as="targetPoint" />
            <Array as="points">
              <mxPoint x="-180" y="595" />
              <mxPoint x="-180" y="645" />
            </Array>
          </mxGeometry>
        </mxCell>
        <mxCell id="61FQVvXKAMuJR3-rqrtT-3" value="" style="edgeStyle=orthogonalEdgeStyle;fontSize=12;html=1;endArrow=ERoneToMany;rounded=0;exitX=0.994;exitY=0.247;exitDx=0;exitDy=0;endSize=9;jumpStyle=arc;jumpSize=23;exitPerimeter=0;entryX=1;entryY=0.5;entryDx=0;entryDy=0;" parent="1" source="bvKT32oD0-qzsxiZBk1q-12" target="61FQVvXKAMuJR3-rqrtT-2" edge="1">
          <mxGeometry width="100" height="100" relative="1" as="geometry">
            <mxPoint x="165" y="-375" as="sourcePoint" />
            <mxPoint x="910" y="-370" as="targetPoint" />
            <Array as="points">
              <mxPoint x="170" y="-393" />
              <mxPoint x="170" y="-520" />
              <mxPoint x="910" y="-520" />
              <mxPoint x="910" y="-395" />
            </Array>
          </mxGeometry>
        </mxCell>
        <mxCell id="Hx_mXP-tW_U6W2S-rnSu-9" value="" style="edgeStyle=orthogonalEdgeStyle;fontSize=12;html=1;endArrow=ERoneToMany;rounded=0;entryX=1;entryY=0.5;entryDx=0;entryDy=0;exitX=1;exitY=0.5;exitDx=0;exitDy=0;startSize=6;endSize=9;" parent="1" source="UHW693a0Wnq4BT_KecG--20" target="Hx_mXP-tW_U6W2S-rnSu-8" edge="1">
          <mxGeometry width="100" height="100" relative="1" as="geometry">
            <mxPoint x="530" y="447" as="sourcePoint" />
            <mxPoint x="635" y="400" as="targetPoint" />
            <Array as="points">
              <mxPoint x="540" y="315" />
              <mxPoint x="540" y="-75" />
            </Array>
          </mxGeometry>
        </mxCell>
        <mxCell id="Hx_mXP-tW_U6W2S-rnSu-12" value="" style="edgeStyle=orthogonalEdgeStyle;fontSize=12;html=1;endArrow=ERoneToMany;rounded=0;entryX=0;entryY=0.5;entryDx=0;entryDy=0;exitX=1;exitY=0.5;exitDx=0;exitDy=0;startSize=6;endSize=9;" parent="1" source="UHW693a0Wnq4BT_KecG--10" target="ivB_Veweyuw7Kfkp-1CT-17" edge="1">
          <mxGeometry width="100" height="100" relative="1" as="geometry">
            <mxPoint x="520" y="-116" as="sourcePoint" />
            <mxPoint x="635" y="370" as="targetPoint" />
            <Array as="points">
              <mxPoint x="600" y="-135" />
              <mxPoint x="600" y="125" />
            </Array>
          </mxGeometry>
        </mxCell>
        <mxCell id="m10G8d942KZPUcmNIZu--1" value="LA CASA DE LA AMAROK" style="text;html=1;strokeColor=none;fillColor=none;align=center;verticalAlign=middle;whiteSpace=wrap;rounded=0;fontSize=19;fontColor=#994C00;" vertex="1" parent="1">
          <mxGeometry x="254" y="-1060" width="320" height="30" as="geometry" />
        </mxCell>
      </root>
    </mxGraphModel>
  </diagram>
</mxfile>
